<svg width="136" height="38" viewBox="0 0 136 38" fill="none" xmlns="http://www.w3.org/2000/svg">
<path d="M0.504 30V26.184L11.88 13.008L12.6 14.628H1.008V10.416H16.776V14.268L5.616 27.444L4.896 25.824H16.848V30H0.504ZM25.468 30.432C24.1 30.432 22.912 30.204 21.904 29.748C20.896 29.292 20.116 28.644 19.564 27.804C19.012 26.94 18.736 25.944 18.736 24.816C18.736 23.736 18.976 22.776 19.456 21.936C19.936 21.072 20.68 20.352 21.688 19.776C22.696 19.2 23.968 18.792 25.504 18.552L31.912 17.508V21.108L26.404 22.044C25.468 22.212 24.772 22.512 24.316 22.944C23.86 23.376 23.632 23.94 23.632 24.636C23.632 25.308 23.884 25.848 24.388 26.256C24.916 26.64 25.564 26.832 26.332 26.832C27.316 26.832 28.18 26.628 28.924 26.22C29.692 25.788 30.28 25.2 30.688 24.456C31.12 23.712 31.336 22.896 31.336 22.008V16.968C31.336 16.128 31 15.432 30.328 14.88C29.68 14.304 28.816 14.016 27.736 14.016C26.728 14.016 25.828 14.292 25.036 14.844C24.268 15.372 23.704 16.08 23.344 16.968L19.492 15.096C19.876 14.064 20.476 13.176 21.292 12.432C22.132 11.664 23.116 11.064 24.244 10.632C25.372 10.2 26.596 9.984 27.916 9.984C29.524 9.984 30.94 10.284 32.164 10.884C33.388 11.46 34.336 12.276 35.008 13.332C35.704 14.364 36.052 15.576 36.052 16.968V30H31.588V26.652L32.596 26.58C32.092 27.42 31.492 28.128 30.796 28.704C30.1 29.256 29.308 29.688 28.42 30C27.532 30.288 26.548 30.432 25.468 30.432ZM40.4108 30V2.748H45.1268V20.604L43.3268 20.064L52.5428 10.416H58.4108L51.1748 18.3L58.5548 30H53.1548L46.7468 19.848L49.5548 19.272L43.6508 25.608L45.1268 22.728V30H40.4108ZM61.1882 30V10.416H65.9042V30H61.1882ZM61.1882 8.22V3.18H65.9042V8.22H61.1882ZM79.5465 30.432C77.5305 30.432 75.7665 29.976 74.2545 29.064C72.7425 28.152 71.5665 26.916 70.7265 25.356C69.8865 23.796 69.4665 22.068 69.4665 20.172C69.4665 18.204 69.8865 16.464 70.7265 14.952C71.5905 13.416 72.7545 12.204 74.2185 11.316C75.7065 10.428 77.3625 9.984 79.1865 9.984C80.7225 9.984 82.0665 10.236 83.2185 10.74C84.3945 11.244 85.3905 11.94 86.2065 12.828C87.0225 13.716 87.6465 14.736 88.0785 15.888C88.5105 17.016 88.7265 18.24 88.7265 19.56C88.7265 19.896 88.7025 20.244 88.6545 20.604C88.6305 20.964 88.5705 21.276 88.4745 21.54H73.3545V17.94H85.8105L83.5785 19.632C83.7945 18.528 83.7345 17.544 83.3985 16.68C83.0865 15.816 82.5585 15.132 81.8145 14.628C81.0945 14.124 80.2185 13.872 79.1865 13.872C78.2025 13.872 77.3265 14.124 76.5585 14.628C75.7905 15.108 75.2025 15.828 74.7945 16.788C74.4105 17.724 74.2665 18.864 74.3625 20.208C74.2665 21.408 74.4225 22.476 74.8305 23.412C75.2625 24.324 75.8865 25.032 76.7025 25.536C77.5425 26.04 78.5025 26.292 79.5825 26.292C80.6625 26.292 81.5745 26.064 82.3185 25.608C83.0865 25.152 83.6865 24.54 84.1185 23.772L87.9345 25.644C87.5505 26.58 86.9505 27.408 86.1345 28.128C85.3185 28.848 84.3465 29.412 83.2185 29.82C82.1145 30.228 80.8905 30.432 79.5465 30.432ZM76.7745 6.96L79.1145 0.731999H85.2345L81.4185 6.96H76.7745ZM101.805 37.92C100.341 37.92 98.9855 37.68 97.7375 37.2C96.4895 36.72 95.4095 36.048 94.4975 35.184C93.6095 34.344 92.9615 33.348 92.5535 32.196L96.9455 30.54C97.2335 31.452 97.7975 32.184 98.6375 32.736C99.5015 33.312 100.557 33.6 101.805 33.6C102.765 33.6 103.605 33.42 104.325 33.06C105.069 32.7 105.645 32.172 106.053 31.476C106.461 30.804 106.665 29.988 106.665 29.028V24.564L107.565 25.644C106.893 26.82 105.993 27.708 104.865 28.308C103.737 28.908 102.453 29.208 101.013 29.208C99.1895 29.208 97.5575 28.788 96.1175 27.948C94.6775 27.108 93.5495 25.956 92.7335 24.492C91.9175 23.028 91.5095 21.384 91.5095 19.56C91.5095 17.712 91.9175 16.068 92.7335 14.628C93.5495 13.188 94.6655 12.06 96.0815 11.244C97.4975 10.404 99.1055 9.984 100.905 9.984C102.369 9.984 103.653 10.296 104.757 10.92C105.885 11.52 106.821 12.396 107.565 13.548L106.917 14.736V10.416H111.381V29.028C111.381 30.732 110.961 32.256 110.121 33.6C109.305 34.944 108.177 36 106.737 36.768C105.321 37.536 103.677 37.92 101.805 37.92ZM101.589 24.852C102.597 24.852 103.473 24.636 104.217 24.204C104.985 23.748 105.585 23.124 106.017 22.332C106.449 21.54 106.665 20.628 106.665 19.596C106.665 18.588 106.437 17.688 105.981 16.896C105.549 16.08 104.949 15.444 104.181 14.988C103.437 14.532 102.573 14.304 101.589 14.304C100.605 14.304 99.7175 14.532 98.9255 14.988C98.1335 15.444 97.5095 16.08 97.0535 16.896C96.6215 17.688 96.4055 18.588 96.4055 19.596C96.4055 20.604 96.6215 21.504 97.0535 22.296C97.5095 23.088 98.1215 23.712 98.8895 24.168C99.6815 24.624 100.581 24.852 101.589 24.852ZM125.362 30.432C123.442 30.432 121.69 29.988 120.106 29.1C118.546 28.212 117.298 27 116.362 25.464C115.45 23.928 114.994 22.176 114.994 20.208C114.994 18.24 115.45 16.488 116.362 14.952C117.298 13.416 118.546 12.204 120.106 11.316C121.666 10.428 123.418 9.984 125.362 9.984C127.282 9.984 129.022 10.428 130.582 11.316C132.142 12.204 133.378 13.416 134.29 14.952C135.226 16.464 135.694 18.216 135.694 20.208C135.694 22.176 135.226 23.928 134.29 25.464C133.354 27 132.106 28.212 130.546 29.1C128.986 29.988 127.258 30.432 125.362 30.432ZM125.362 26.112C126.418 26.112 127.342 25.86 128.134 25.356C128.95 24.852 129.586 24.156 130.042 23.268C130.522 22.356 130.762 21.336 130.762 20.208C130.762 19.056 130.522 18.048 130.042 17.184C129.586 16.296 128.95 15.6 128.134 15.096C127.342 14.568 126.418 14.304 125.362 14.304C124.282 14.304 123.334 14.568 122.518 15.096C121.702 15.6 121.054 16.296 120.574 17.184C120.118 18.048 119.89 19.056 119.89 20.208C119.89 21.336 120.118 22.356 120.574 23.268C121.054 24.156 121.702 24.852 122.518 25.356C123.334 25.86 124.282 26.112 125.362 26.112Z" fill="white"/>
</svg>
